<svg width="400" height="400" viewBox="0 0 400 400" fill="none" xmlns="http://www.w3.org/2000/svg">
  <rect width="400" height="400" fill="#F3F4F6"/>
  <path d="M200 150C177.909 150 160 167.909 160 190C160 212.091 177.909 230 200 230C222.091 230 240 212.091 240 190C240 167.909 222.091 150 200 150ZM200 210C188.954 210 180 201.046 180 190C180 178.954 188.954 170 200 170C211.046 170 220 178.954 220 190C220 201.046 211.046 210 200 210Z" fill="#9CA3AF"/>
  <path d="M200 100C144.772 100 100 144.772 100 200C100 255.228 144.772 300 200 300C255.228 300 300 255.228 300 200C300 144.772 255.228 100 200 100ZM200 280C155.817 280 120 244.183 120 200C120 155.817 155.817 120 200 120C244.183 120 280 155.817 280 200C280 244.183 244.183 280 200 280Z" fill="#9CA3AF"/>
  <path d="M260 190H240C240 167.909 222.091 150 200 150V130C233.137 130 260 156.863 260 190Z" fill="#9CA3AF"/>
</svg>
